<svg width="412" height="42" viewBox="0 0 412 42" fill="none" xmlns="http://www.w3.org/2000/svg">
<path d="M2 31.2387C131.781 31.2387 261.723 29.8141 391.276 38.8828C397.258 39.3015 415.236 39.8383 409.24 39.8383C394.055 39.8383 378.663 38.0428 363.566 36.9718C263.017 29.8382 162.399 27.7988 61.624 27.7988C53.1401 27.7988 27.9017 28.1915 36.2074 26.4611C49.6154 23.6678 64.5065 23.7684 78.0588 22.6391C110.362 19.9472 142.662 17.3139 174.948 14.4217C216.075 10.7374 258.042 6.05189 299.356 5.43985C303.876 5.37288 308.403 5.43985 312.924 5.43985C318.593 5.43985 301.585 5.49162 295.916 5.43985C260.295 5.11454 224.844 2 189.185 2C156.57 2 123.955 2 91.3404 2C90.4373 2 70.077 2 78.1544 2C120.678 2 163.021 6.00333 205.429 8.78414C271.198 13.0969 336.652 11.6059 402.36 14.0395C407.521 14.2306 398.592 15.7594 397.2 15.7594C391.266 15.7594 386.185 16.1899 380.383 17.4793" stroke="#FFB600" stroke-width="3" stroke-linecap="round" stroke-linejoin="round"/>
</svg>
