<svg width="399" height="37" viewBox="0 0 399 37" fill="none" xmlns="http://www.w3.org/2000/svg">
<path d="M73.6529 7.91321C170.98 7.91321 268.443 10.1387 365.684 10.1387C459.239 10.1387 178.576 8.90992 85.0275 7.78958C59.9727 7.48952 31.4937 9.08115 6.76516 3.58591C-13.7684 -0.977104 48.9043 3.82764 69.8201 6.05866C115.957 10.9799 161.467 21.09 207.181 28.8079C217 30.4656 246.441 34.6188 236.483 34.6188C175.993 34.6188 114.913 32.7326 54.6127 27.9424C39.7858 26.7646 19.4931 27.4078 5.15788 22.9969C-9.67807 18.432 36.1481 21.158 51.6455 20.2769C164.637 13.8527 277.263 12.3642 390.411 12.3642C405.512 12.3642 395.697 12.3642 387.444 12.3642" stroke="#FFB600" stroke-width="3" stroke-linecap="round" stroke-linejoin="round"/>
</svg>
