<svg width="381" height="51" viewBox="0 0 381 51" fill="none" xmlns="http://www.w3.org/2000/svg">
<path d="M61.4378 31.1701C150.045 31.1701 237.935 30.6198 325.898 42.9156C335.303 44.2304 346.946 44.8342 328.247 44.3993C264.541 42.9178 200.989 35.2465 137.475 30.5519C101.72 27.9092 65.9576 26.0206 30.4049 21.1555C30.3278 21.145 -0.314558 15.3291 2.21562 12.3773C4.01913 10.2732 12.7312 11.1756 14.4557 11.1409C35.0843 10.7255 55.6689 9.76501 76.2743 8.66815C130.684 5.77181 184.849 2.23901 239.352 2.23901C273.013 2.23901 373.355 3.59718 340.116 8.91542C292.583 16.5207 246.95 24.6651 200.159 36.3629C185.672 39.9846 170.893 42.0115 156.391 45.512C139.76 49.5265 170.119 42.4597 171.475 42.2975C233.219 34.9092 295.991 37.8465 358.043 37.8465C358.434 37.8465 373.734 37.8465 365.338 37.8465C323.384 37.8465 281.429 37.7631 239.475 37.8465C186.717 37.9514 133.991 38.6092 81.467 44.0284C65.1085 45.7162 48.7322 48.6797 32.2595 48.9739C-11.6659 49.7582 120.124 49.0802 164.057 48.9739C232.683 48.8077 301.161 44.5229 369.789 44.5229C388.902 44.5229 373.413 44.3296 361.629 44.0284C311.754 42.7536 261.913 42.4392 212.028 42.2975C161.297 42.1533 110.629 40.6763 59.9542 38.3411C55.4455 38.1333 39.554 39.4538 35.2267 35.1265C34.0783 33.978 54.0149 32.9343 54.5141 32.901C91.4549 30.4383 128.394 26.5795 165.293 23.5046C210.131 19.7681 254.57 15.5918 299.563 15.5918" stroke="#FFB600" stroke-width="3" stroke-linecap="round" stroke-linejoin="round"/>
</svg>
