<svg width="361" height="42" viewBox="0 0 361 42" fill="none" xmlns="http://www.w3.org/2000/svg">
<path d="M1.77637 38.0676C115.399 38.0676 229.021 38.0676 342.644 38.0676C423.091 38.0676 181.71 40.3729 101.304 37.8203C77.8032 37.0742 54.6831 31.3912 31.202 31.3912C20.857 31.3912 51.4339 31.204 52.5912 31.1439C100.032 28.6795 147.971 15.7594 195.145 9.63104C226.583 5.54694 257.797 2.46008 289.48 2.46008C323.348 2.46008 221.619 3.02895 187.974 6.91102C151.742 11.0916 115.233 15.035 79.2969 21.3766C78.6772 21.4859 58.4022 27.0941 58.4022 26.9402C58.4022 17.9232 230.232 29.6085 244.847 30.8966C265.285 32.698 294.466 31.5873 314.207 39.1803C318.809 40.95 319.271 40.277 317.793 35.8421" stroke="#FFB600" stroke-width="3" stroke-linecap="round" stroke-linejoin="round"/>
</svg>
