<svg width="1850" height="235" viewBox="0 0 1850 235" fill="none" xmlns="http://www.w3.org/2000/svg">
  <path d="M175.661 48.1147C119.432 31.6098 0 0.000442505 0 0.000442505H1850C1842.55 2.5455 1835.12 5.9989 1827.99 7.87369C1797.66 15.8553 1771.98 20.4444 1741.56 22.0455C1733.13 22.4895 1724.52 28.1735 1714.97 28.3441C1694.39 28.7116 1673.54 27.012 1653.03 29.044C1590.48 35.2423 1519.77 47.8084 1464.77 80.3075C1429.83 100.957 1396.72 119.674 1354.72 119.674C1303.08 119.674 1256.24 113.831 1207.23 95.7041C1183.64 86.9786 1158.85 72.8182 1133.05 77.3332C1106.26 82.0215 1081.26 89.0912 1055.01 95.879C996.588 110.989 944.739 142.33 892.301 171.462C835.713 202.9 777.475 233.048 711.741 233.048C654.158 233.048 585.742 243.249 539.23 201.905C496.759 164.154 448.974 141.594 396.287 119.499C324.569 89.4238 250.13 69.9737 175.661 48.1147Z" fill="{{ include.bg_colour }}"/>
</svg>
