<svg width="1850" height="386" viewBox="0 0 1850 386" fill="none" xmlns="http://www.w3.org/2000/svg">
  <path d="M169.613 361.211C113.979 368.426 53.6781 368.054 0 385.271V0.000427246H1850V45.7484C1841.78 45.7484 1835.11 54.8505 1827.28 56.5905C1817.96 58.6606 1810 62.9262 1801.28 67.2842C1766.09 84.8792 1728.34 101.353 1689.15 107.088C1667.28 110.289 1645.54 110.257 1623.35 109.91C1605.34 109.629 1589.31 101.89 1571.07 101.89C1553.54 101.89 1539.52 104.394 1522.66 109.91C1469.97 127.143 1417.11 146.464 1362.55 156.843C1341.44 160.86 1329.23 158.38 1309.38 154.319C1275.85 147.461 1236.02 153.236 1202.59 154.319C1133.18 156.565 1063.97 160.705 994.509 160.705C976.986 160.705 949.804 155.548 932.723 162.19L928.215 163.944C883.813 181.214 839.718 198.366 794.3 213.134C733.908 232.77 673.479 251.655 611.765 266.75C589.615 272.168 567.886 278.335 544.93 278.335C515.12 278.335 484.52 289.35 456.262 297.643C428.913 305.669 401.011 311.494 373.683 319.624C306.578 339.59 239.094 352.2 169.613 361.211Z" fill="{{ include.bg_colour }}"/>
</svg>
