<svg width="1850" height="378" viewBox="0 0 1850 378" fill="none" xmlns="http://www.w3.org/2000/svg" style="margin-bottom: -30px;">
  <path d="M405.597 116.527C299.87 40.1112 119.29 -62.2431 0 49.0944V377.268H1847.66C1858.46 371.871 1828.68 368.277 1822.94 368.277C1806.9 368.277 1799.2 361.103 1784.73 359.036C1763.82 356.049 1741.57 338.157 1721.79 330.065C1682.24 313.887 1650.92 296.664 1607.15 289.855C1557.75 282.17 1505.89 287.488 1456.8 293.851C1432.34 297.022 1405.66 295.466 1382.63 305.34C1376.6 307.921 1361.89 318.49 1355.4 316.329C1266.32 286.634 1188.98 215.429 1090.92 215.429C1040.05 215.429 983.888 214.922 934.071 226.418C911.253 231.684 863.89 283.61 849.655 269.375C824.213 243.933 790.442 222.817 762.742 199.445C724.114 166.853 675.785 139.005 623.88 139.005C584.549 139.005 527.676 151.437 501.002 182.961C494.316 190.863 414.921 123.266 405.597 116.527Z" fill="{{ include.bg_colour }}"/>
</svg>
