<svg width="984" height="575" viewBox="0 0 984 575" fill="none" xmlns="http://www.w3.org/2000/svg">
<path d="M840.764 290.781C839.904 261.691 815.204 237.001 786.924 228.861C758.654 220.721 727.994 226.411 700.574 237.021C686.174 242.591 672.354 249.471 658.604 256.481C486.824 294.751 304.724 269.241 127.804 282.291C108.654 283.711 84.2843 290.561 83.0443 309.501C82.1843 322.711 94.0043 333.071 105.204 340.331C197.154 399.901 314.344 400.081 424.254 402.851C537.814 405.721 654.974 412.971 761.534 374.071C780.884 367.001 800.034 358.241 815.244 344.461C830.444 330.671 841.364 311.161 840.764 290.781Z" fill="#0460A9"/>
<path d="M829.754 441.041C864.034 439.051 898.584 443.471 931.654 454.071C948.274 459.401 965.354 466.941 976.274 482.361C982.094 490.59 985.704 502.881 980.484 511.631C977.054 517.391 970.844 519.871 965.054 521.921C862.744 558.201 755.404 573.461 648.384 574.891C539.724 576.341 429.274 563.18 328.634 515.86C316.134 509.98 301.454 498.47 304.714 483.361C306.814 473.601 315.704 468.191 323.884 464.711C374.734 443.071 430.804 449.651 484.884 453.591C571.174 459.871 657.874 458.641 743.994 449.891C786.184 445.611 829.754 441.041 829.754 441.041Z" fill="#0460A9"/>
<path d="M279.403 372.173C298.183 349.643 321.653 330.363 334.663 304.073C345.923 281.323 348.273 254.313 341.123 229.963C339.773 225.353 338.003 220.693 334.653 217.253C324.233 206.563 306.263 213.043 291.593 210.263C288.033 222.483 284.373 234.913 277.333 245.523C270.293 256.133 259.223 264.823 246.533 265.823C243.213 266.083 239.563 265.693 237.143 263.403C235.233 261.603 234.433 258.943 233.943 256.363C229.933 234.943 243.033 214.613 251.933 194.713C260.133 176.383 265.053 156.593 266.383 136.563C266.873 129.223 266.543 120.973 261.293 115.823C254.043 108.703 241.063 111.893 234.273 119.473C227.493 127.053 225.103 137.443 222.283 147.213C219.463 156.983 215.433 167.253 206.883 172.743C199.593 152.313 198.043 129.863 202.453 108.623C206.293 90.1431 214.513 72.6531 216.753 53.9131C218.993 35.1731 213.263 13.4331 196.513 4.74309C187.343 -0.0169053 176.553 -0.0569053 166.223 0.0130947C161.883 0.0430947 157.233 0.173095 153.733 2.72309C150.993 4.72309 149.393 7.91309 148.253 11.0931C137.363 41.3331 158.913 73.7131 157.833 105.833C157.543 114.263 155.163 123.433 148.253 128.263C141.333 133.103 131.653 132.123 124.173 128.213C116.693 124.303 110.853 117.933 104.943 111.913C96.0333 102.833 86.5933 94.2631 76.6933 86.2731C74.6433 84.6231 72.4633 82.9331 69.8733 82.4931C65.4333 81.7331 61.2833 84.7931 58.0833 87.9631C45.4533 100.493 37.9133 120.463 45.8833 136.373C50.9033 146.393 60.9933 152.883 71.2833 157.323C85.7433 163.573 101.513 166.823 115.233 174.573C128.953 182.323 140.833 196.493 139.343 212.173C138.993 215.893 137.803 219.683 135.133 222.293C131.513 225.843 125.993 226.503 120.923 226.443C85.8833 226.013 54.2633 200.643 19.2733 202.503C15.8233 202.683 12.2733 203.173 9.31334 204.963C5.48334 207.273 3.17334 211.473 1.79334 215.723C-5.03666 236.793 8.52333 260.233 27.5533 271.563C46.5833 282.893 69.6333 284.783 91.7733 285.383C110.163 285.883 129.183 285.813 146.013 293.253C162.833 300.693 176.883 318.123 173.863 336.263C173.353 339.353 172.283 342.483 170.033 344.663C166.833 347.763 161.993 348.283 157.543 348.633C130.273 350.783 103.003 352.943 75.7333 355.093C68.4033 355.673 60.4833 356.493 55.0433 361.443C49.6033 366.393 48.0333 374.223 47.0933 381.523C45.5333 393.513 44.9733 406.363 50.7133 417.003C57.6733 429.893 72.2633 436.603 86.3233 440.713C130.543 453.643 177.083 449.403 222.493 448.973C247.013 448.743 249.493 449.973 252.873 426.363C255.733 406.113 266.453 387.713 279.403 372.173Z" fill="#FF462C"/>
</svg>
