<svg width="758" height="181" viewBox="0 0 758 181" fill="none" xmlns="http://www.w3.org/2000/svg">
<path d="M0.0235596 114.53C0.88356 143.62 25.5836 168.31 53.8636 176.45C82.1336 184.59 112.794 178.9 140.214 168.29C154.614 162.72 168.434 155.84 182.184 148.83C353.964 110.56 536.064 136.07 712.984 123.02C732.134 121.6 756.504 114.75 757.744 95.8105C758.604 82.6005 746.784 72.2405 735.584 64.9805C643.634 5.41048 526.444 5.23046 416.534 2.46046C302.974 -0.409535 185.814 -7.65954 79.2535 31.2405C59.9035 38.3105 40.7536 47.0705 25.5436 60.8505C10.3436 74.6405 -0.57644 94.1505 0.0235596 114.53Z" fill="#FFB600"/>
</svg>
