<svg width="4892" height="3458" viewBox="0 0 4892 3458" fill="none" xmlns="http://www.w3.org/2000/svg">
<path d="M2617.86 521.439C2603.35 544.44 2588.64 569.286 2589.01 596.509C2589.38 624.02 2605.07 648.661 2620.73 671.252C2677.83 753.621 2741.77 831.233 2811.65 903.065C2932.19 1026.97 3069.63 1132.91 3206.52 1238.4C3442.49 1420.19 3695.79 1609.08 3992.34 1636.8C4301.26 1665.66 4617.19 1497.03 4774.74 1229.67C4932.3 962.31 4929.23 610.777 4776.67 340.548C4727.85 254.079 4663.26 174.007 4577.88 123.413C4492.14 72.6144 4391.35 54.6565 4292.81 39.6506C3964.05 -10.4921 3614.14 -35.01 3311.53 103.036C3179.8 163.142 3053.19 254.735 2905.68 270.315C2834.15 277.859 2812.31 264.944 2760.13 314.226C2703.44 367.813 2659.3 455.798 2617.86 521.439Z" fill="#EBEBD3" fill-opacity="0.35"/>
<path d="M2009.61 1042.01C1982.97 1047.46 1954.85 1054.04 1935.46 1073.15C1915.86 1092.46 1908.95 1120.84 1903.48 1147.78C1883.55 1246 1871.8 1345.87 1868.33 1446.03C1862.35 1618.79 1881.02 1791.31 1899.65 1963.13C1931.78 2259.27 1970.8 2572.82 2156.06 2806.03C2349.06 3048.96 2689.45 3160.24 2991.47 3088.89C3293.48 3017.53 3545.06 2771.98 3634.49 2474.83C3663.1 2379.74 3676.18 2277.7 3653.59 2181.06C3630.9 2084.01 3574.1 1998.84 3516.72 1917.34C3325.34 1645.37 3100.83 1375.86 2791.74 1253.02C2657.17 1199.55 2503.43 1171.58 2390.08 1075.9C2335.12 1029.5 2329.32 1004.8 2257.64 1001.25C2179.73 997.436 2085.67 1026.48 2009.61 1042.01Z" fill="#EBEBD3" fill-opacity="0.35"/>
<path d="M1118.56 935.862C1095.56 921.352 1070.71 906.638 1043.49 907.007C1015.98 907.376 991.339 923.074 968.748 938.731C886.379 995.827 808.767 1059.77 736.935 1129.65C613.034 1250.19 507.09 1387.63 401.598 1524.52C219.805 1760.49 30.9191 2013.79 3.20323 2310.34C-25.6606 2619.26 142.971 2935.19 410.331 3092.74C677.69 3250.3 1029.22 3247.23 1299.45 3094.67C1385.92 3045.85 1465.99 2981.26 1516.59 2895.88C1567.39 2810.14 1585.34 2709.35 1600.35 2610.81C1650.49 2282.05 1675.01 1932.14 1536.96 1629.53C1476.86 1497.8 1385.26 1371.19 1369.68 1223.68C1362.14 1152.15 1375.06 1130.31 1325.77 1078.13C1272.19 1021.44 1184.2 977.3 1118.56 935.862Z" fill="#EBEBD3" fill-opacity="0.35"/>
</svg>
