<svg width="2088" height="1787" viewBox="0 0 2088 1787" fill="none" xmlns="http://www.w3.org/2000/svg">
  <path d="M1755.77 1315.92C1788.38 1311.89 1819.68 1305.48 1849.19 1296.71C1865.86 1291.76 1882.06 1286.02 1895.72 1277.96C1925.02 1260.72 1941.18 1233.91 1954.48 1206.88C1965.21 1185.08 1974.48 1162.47 1980.76 1139.02C1993.01 1117.5 1996.47 1092.02 1997.98 1066.71C2001.02 1017.6 1997.85 966.526 1977.31 915.242C1956.75 864.013 1917.45 812.28 1859.82 774.513C1802.14 736.759 1725.05 715.079 1663.48 725.763C1663.48 725.763 1606.03 763.134 1594.94 767.981C1589.37 770.41 1584.33 774.347 1579.16 778.389C1544.45 799.487 1522.43 803.654 1519.63 805.412C1449.39 832.847 1369.82 850.166 1285.68 862.83C1258.65 866.885 1224.71 881.396 1224.71 881.396C1224.69 881.45 1224.78 881.575 1224.79 881.67C1222.06 886.202 1297.53 959.524 1335.67 988.822C1357.57 1005.65 1373.41 1025.15 1396.03 1041.75C1477.45 1116.53 1555.15 1193.26 1628.86 1271.66C1641.07 1284.65 1653.88 1298.23 1671.56 1306.98C1698.19 1320.24 1728.98 1319.21 1755.77 1315.92Z" fill="#FFB600"/>
  <path d="M1812.43 521.359C1825.24 491.102 1835.34 460.788 1842.5 430.85C1846.55 413.935 1849.68 397.043 1849.52 381.181C1849.25 347.187 1834.1 319.785 1817.35 294.747C1803.83 274.555 1788.89 255.228 1771.72 238.063C1759.21 216.694 1738.87 200.954 1717.7 186.995C1676.7 159.799 1630.88 137.015 1576.2 129.159C1521.55 121.347 1457.1 129.516 1395.58 160.543C1334.04 191.619 1276.72 247.545 1255.19 306.206C1255.19 306.206 1258.83 374.642 1257.48 386.671C1256.8 392.71 1257.69 399.041 1258.61 405.536C1259.52 446.151 1252.12 467.303 1252.24 470.61C1240.88 545.151 1216.1 622.723 1184.99 701.925C1174.99 727.357 1170.59 764.007 1170.59 764.007C1170.62 764.051 1170.78 764.035 1170.86 764.073C1173.42 768.704 1274.66 740.009 1319.1 721.629C1344.62 711.073 1369.43 707.108 1395.11 695.818C1500.59 662.698 1605.89 633.774 1710.64 609.134C1728 605.053 1746.16 600.746 1762.58 589.814C1787.38 573.387 1801.88 546.203 1812.43 521.359Z" fill="#FFB600"/>
  <path d="M1552.45 1393.56C1475.52 1260.46 1366.33 1149.13 1253.3 1044.94C1210.22 1005.25 1165.72 965.843 1113.2 939.924C1037.46 902.507 950.527 895.698 866.054 894.292C731.764 892.059 595.866 902.128 467.805 942.647C339.744 983.167 219.365 1056.01 137.817 1162.73C10.1141 1329.83 -7.68261 1555.31 2.36573 1765.36C291.2 1764.31 580.078 1767.08 868.845 1773.64C1013.23 1776.93 1157.52 1784.16 1301.93 1786.37C1561.73 1790.3 1640 1774.58 1640 1774.58C1640 1774.58 1594.65 1466.59 1552.45 1393.56Z" fill="#FEA19A"/>
</svg>
