<svg width="1153" height="795" viewBox="0 0 1153 795" fill="none" xmlns="http://www.w3.org/2000/svg">
<path d="M1009.76 510.781C1008.9 481.691 984.204 457.001 955.924 448.861C927.654 440.721 896.994 446.411 869.574 457.021C855.174 462.591 841.354 469.471 827.604 476.481C655.824 514.751 473.724 489.241 296.804 502.291C277.654 503.711 253.284 510.561 252.044 529.501C251.184 542.711 263.004 553.071 274.204 560.331C366.154 619.901 483.344 620.081 593.254 622.851C706.814 625.721 823.974 632.971 930.534 594.071C949.884 587.001 969.034 578.241 984.244 564.461C999.444 550.671 1010.36 531.161 1009.76 510.781Z" fill="#0460A9"/>
<path d="M998.754 661.041C1033.03 659.051 1067.58 663.471 1100.65 674.071C1117.27 679.401 1134.35 686.941 1145.27 702.361C1151.09 710.59 1154.7 722.881 1149.48 731.631C1146.05 737.391 1139.84 739.871 1134.05 741.921C1031.74 778.201 924.404 793.461 817.384 794.891C708.724 796.341 598.274 783.18 497.634 735.86C485.134 729.98 470.454 718.471 473.714 703.361C475.814 693.601 484.704 688.191 492.884 684.711C543.734 663.071 599.804 669.651 653.884 673.591C740.174 679.871 826.874 678.641 912.994 669.891C955.184 665.611 998.754 661.041 998.754 661.041Z" fill="#0460A9"/>
<path d="M416.04 554.152C444.004 520.606 478.951 491.898 498.323 452.754C515.09 418.88 518.589 378.663 507.943 342.407C505.932 335.542 503.297 328.604 498.309 323.482C482.793 307.565 456.035 317.213 434.191 313.074C428.89 331.269 423.44 349.777 412.957 365.575C402.475 381.373 385.991 394.312 367.095 395.801C362.152 396.188 356.717 395.607 353.113 392.198C350.269 389.517 349.078 385.557 348.348 381.715C342.377 349.822 361.884 319.551 375.136 289.921C387.346 262.628 394.672 233.161 396.653 203.337C397.382 192.408 396.891 180.124 389.073 172.456C378.278 161.855 358.95 166.605 348.84 177.891C338.744 189.177 335.185 204.648 330.986 219.195C326.787 233.742 320.787 249.034 308.055 257.208C297.2 226.789 294.892 193.361 301.459 161.736C307.177 134.22 319.417 108.178 322.752 80.2746C326.087 52.3714 317.555 20.0014 292.614 7.06229C278.96 -0.0251714 262.893 -0.0847299 247.511 0.0194976C241.049 0.0641665 234.125 0.257732 228.913 4.05459C224.833 7.03251 222.451 11.7823 220.754 16.5172C204.538 61.5435 236.627 109.756 235.018 157.582C234.587 170.134 231.043 183.787 220.754 190.979C210.449 198.186 196.036 196.726 184.898 190.905C173.76 185.083 165.064 175.598 156.264 166.634C142.996 153.115 128.94 140.354 114.199 128.457C111.146 126.001 107.9 123.484 104.043 122.829C97.4321 121.698 91.2527 126.254 86.4878 130.974C67.6813 149.631 56.4541 179.365 68.3216 203.055C75.7966 217.974 90.8209 227.637 106.143 234.248C127.674 243.554 151.156 248.393 171.586 259.933C192.015 271.472 209.705 292.571 207.486 315.918C206.965 321.457 205.193 327.1 201.217 330.986C195.827 336.272 187.608 337.255 180.058 337.165C127.883 336.525 80.7997 298.75 28.6986 301.52C23.5614 301.788 18.2754 302.517 13.8678 305.183C8.16485 308.622 4.72519 314.876 2.67033 321.204C-7.49974 352.576 12.6915 387.477 41.0277 404.347C69.3639 421.217 103.686 424.032 136.653 424.925C164.036 425.669 192.358 425.565 217.418 436.643C242.464 447.721 263.384 473.674 258.888 500.683C258.128 505.284 256.535 509.945 253.185 513.191C248.42 517.806 241.213 518.581 234.587 519.102C193.981 522.303 153.375 525.519 112.769 528.721C101.855 529.584 90.0615 530.805 81.9611 538.175C73.8608 545.546 71.523 557.204 70.1233 568.074C67.8005 585.927 66.9666 605.06 75.5136 620.902C85.8773 640.095 107.602 650.086 128.538 656.206C194.383 675.458 263.682 669.145 331.299 668.504C367.81 668.162 371.503 669.993 376.536 634.839C380.794 604.687 396.757 577.291 416.04 554.152Z" fill="#FF462C"/>
</svg>
