<svg width="2164" height="1477" viewBox="0 0 2164 1477" fill="none" xmlns="http://www.w3.org/2000/svg">
  <path d="M0.059786 1129.67C2.24443 1187.75 64.9896 1237.04 136.829 1253.29C208.643 1269.54 286.528 1258.18 356.183 1237C392.763 1225.88 427.87 1212.14 462.799 1198.15C899.17 1121.74 1361.76 1172.67 1811.18 1146.62C1859.83 1143.78 1921.74 1130.1 1924.89 1092.29C1927.07 1065.92 1897.05 1045.23 1868.59 1030.74C1635.02 911.802 1337.32 911.443 1058.12 905.912C769.64 900.182 472.02 885.707 201.327 963.373C152.172 977.489 103.526 994.978 64.888 1022.49C26.2756 1050.02 -1.46439 1088.98 0.059786 1129.67Z" fill="#FFB600"/>
  <path d="M1726.01 1108.12C1726.75 1095.83 1727.96 1082.69 1735.7 1073.09C1743.05 1063.9 1754.87 1059.79 1766.1 1056.22C1844.63 1031.23 1925.08 1012.15 2006.48 999.269C2041.49 993.716 2077.56 989.049 2108.79 972.27C2140.05 955.522 2165.9 923.383 2163.89 887.995C2161.5 845.872 2119.93 814.295 2078.06 809.008C2036.2 803.72 1994.57 818.401 1955.42 834.205C1889.71 860.701 1825.54 891.038 1763.38 924.978C1753.48 820.735 1749.11 715.989 1750.35 611.302C1861.5 604.715 1970.9 570.361 2065.86 512.228C2084.24 500.974 2102.97 487.858 2111.92 468.244C2126.04 437.347 2110.27 399.005 2083.32 378.327C2056.38 357.62 2021.19 351.21 1987.27 349.172C1934.3 345.982 1880.76 352.038 1829.83 366.955C1862.77 308.024 1895.74 249.094 1928.68 190.163C1944.31 162.19 1960.47 130.022 1950.7 99.5076C1940.3 67.0146 1904.96 50.325 1872.61 39.5137C1752.98 -0.393643 1623.49 -10.3188 1499.16 10.8608C1492.19 12.0423 1484.83 13.5193 1479.57 18.2751C1473.87 23.4149 1471.77 31.42 1470.45 38.982C1464.57 72.7452 1468.73 108.222 1482.26 139.71C1367.3 36.3826 1193.55 3.59414 1048.84 57.9461C1038.26 61.9044 1027.48 66.5715 1020.06 75.1083C1006.62 90.5868 1008.19 113.745 1012.21 133.862C1031.2 228.8 1088.08 314.139 1163.15 375.314C1238.22 436.46 1330.58 474.389 1425.68 492.644C1224.96 494.83 1024.76 538.784 841.615 620.932C805.984 636.913 769.259 655.788 747.928 688.518C722.697 727.243 724.174 777.017 728.488 823.039C730.881 848.649 734.338 875.471 749.405 896.325C778.418 936.498 836.562 938.684 885.991 934.874C1057.56 921.64 1227.09 882.855 1387.34 820.173C1453.19 794.415 1522.18 760.357 1554.44 697.438C1561.83 776.367 1582.83 853.996 1616.25 925.894C1529.56 942.554 1445.15 970.971 1366.06 1010.14C1338.91 1023.58 1308.57 1044.73 1310.31 1074.95C1311.52 1096.1 1329.61 1113.35 1349.75 1119.88C1369.9 1126.41 1391.77 1124.34 1412.71 1121.24C1465.04 1113.53 1516.48 1099.91 1565.79 1080.71C1542.12 1145.99 1522.15 1213.6 1519.93 1282.99C1518.31 1333.86 1524.87 1421.06 1564.37 1459.37C1589.75 1483.98 1686.54 1482.62 1721.84 1456.59C1764.86 1424.9 1736.11 1361.18 1731.15 1315.99C1723.56 1246.22 1726.24 1177.95 1726.01 1108.12Z" fill="#0460A9"/>
</svg>
