<svg width="1925" height="1477" viewBox="0 0 1925 1477" fill="none" xmlns="http://www.w3.org/2000/svg">
<path d="M0.059786 1345.67C2.24443 1403.75 64.9896 1453.04 136.829 1469.29C208.643 1485.54 286.528 1474.18 356.183 1453C392.763 1441.88 427.87 1428.14 462.799 1414.15C899.17 1337.74 1361.76 1388.67 1811.18 1362.62C1859.83 1359.78 1921.74 1346.1 1924.89 1308.29C1927.07 1281.92 1897.05 1261.23 1868.59 1246.74C1635.02 1127.8 1337.32 1127.44 1058.12 1121.91C769.64 1116.18 472.02 1101.71 201.327 1179.37C152.172 1193.49 103.526 1210.98 64.888 1238.49C26.2756 1266.02 -1.46439 1304.98 0.059786 1345.67Z" fill="#FEA19A" fill-opacity="0.25"/>
<path d="M1290.01 1108.12C1290.75 1095.83 1291.96 1082.69 1299.7 1073.09C1307.05 1063.9 1318.87 1059.79 1330.1 1056.22C1408.63 1031.23 1489.08 1012.15 1570.48 999.269C1605.49 993.716 1641.56 989.049 1672.79 972.27C1704.05 955.522 1729.9 923.383 1727.89 887.995C1725.5 845.872 1683.93 814.295 1642.06 809.008C1600.2 803.72 1558.57 818.401 1519.42 834.205C1453.71 860.701 1389.54 891.038 1327.38 924.978C1317.48 820.735 1313.11 715.989 1314.35 611.302C1425.5 604.715 1534.9 570.361 1629.86 512.228C1648.24 500.974 1666.97 487.858 1675.92 468.244C1690.04 437.347 1674.27 399.005 1647.32 378.327C1620.38 357.62 1585.19 351.21 1551.27 349.172C1498.3 345.982 1444.76 352.038 1393.83 366.955C1426.77 308.024 1459.74 249.094 1492.68 190.163C1508.31 162.19 1524.47 130.022 1514.7 99.5076C1504.3 67.0146 1468.96 50.325 1436.61 39.5137C1316.98 -0.393643 1187.49 -10.3188 1063.16 10.8608C1056.19 12.0423 1048.83 13.5193 1043.57 18.2751C1037.87 23.4149 1035.77 31.42 1034.45 38.982C1028.57 72.7452 1032.73 108.222 1046.26 139.71C931.304 36.3826 757.552 3.59414 612.842 57.9461C602.264 61.9044 591.481 66.5715 584.065 75.1083C570.622 90.5868 572.188 113.745 576.206 133.862C595.203 228.8 652.077 314.139 727.15 375.314C802.223 436.46 894.58 474.389 989.685 492.644C788.958 494.83 588.763 538.784 405.615 620.932C369.984 636.913 333.259 655.788 311.928 688.518C286.697 727.243 288.174 777.017 292.488 823.039C294.881 848.649 298.338 875.471 313.405 896.325C342.418 936.498 400.562 938.684 449.991 934.874C621.557 921.64 791.085 882.855 951.336 820.173C1017.19 794.415 1086.18 760.357 1118.44 697.438C1125.83 776.367 1146.83 853.996 1180.25 925.894C1093.56 942.554 1009.15 970.971 930.064 1010.14C902.912 1023.58 872.569 1044.73 874.313 1074.95C875.524 1096.1 893.605 1113.35 913.755 1119.88C933.904 1126.41 955.768 1124.34 976.715 1121.24C1029.04 1113.53 1080.48 1099.91 1129.79 1080.71C1106.12 1145.99 1086.15 1213.6 1083.93 1282.99C1082.31 1333.86 1088.87 1421.06 1128.37 1459.37C1153.75 1483.98 1250.54 1482.62 1285.84 1456.59C1328.86 1424.9 1300.11 1361.18 1295.15 1315.99C1287.56 1246.22 1290.24 1177.95 1290.01 1108.12Z" fill="#DBF4D7"/>
</svg>
