<svg width="519" height="1129" viewBox="0 0 519 1129" fill="none" xmlns="http://www.w3.org/2000/svg">
<path d="M206.944 230.301C209.935 178.786 203.293 126.866 187.364 77.17C179.354 52.1942 168.023 26.5272 144.851 10.1171C132.483 1.37106 114.014 -4.05383 100.865 3.79055C92.2092 8.945 88.4824 18.2771 85.4017 26.9781C30.8818 180.725 7.9498 342.031 5.80086 502.856C3.62187 666.145 23.3982 832.124 94.5085 983.362C103.345 1002.15 120.641 1024.21 143.348 1019.31C158.015 1016.15 166.145 1002.79 171.374 990.5C203.894 914.085 194.006 829.825 188.085 748.556C178.648 618.883 180.496 488.595 193.645 359.177C200.077 295.776 206.944 230.301 206.944 230.301Z" fill="#EBEBD3" fill-opacity="0.25"/>
<path d="M450.786 190.024C480.794 190.911 506.263 216.367 514.66 245.514C523.057 274.649 517.187 306.249 506.242 334.509C500.497 349.35 493.399 363.593 486.168 377.764C446.691 554.806 473.006 742.484 459.544 924.823C458.079 944.56 451.013 969.676 431.475 970.954C417.849 971.841 407.162 959.659 399.673 948.116C338.223 853.349 338.037 732.569 335.18 619.293C332.22 502.254 324.741 381.505 364.868 271.681C372.161 251.739 381.198 232.002 395.412 216.326C409.637 200.66 429.763 189.406 450.786 190.024Z" fill="#EBEBD3" fill-opacity="0.25"/>
<path d="M33.9225 1075.19C30.0818 1068.39 27.0798 1060.63 28.3011 1052.92C29.3958 1045.95 33.8029 1039.94 38.8331 1035C69.736 1004.66 120.334 1009.24 159.313 990.39C175.549 982.53 190.989 967.762 190.201 949.741C189.777 940.154 184.71 931.262 178.129 924.263C136.658 880.141 53.1011 909.944 9.68528 867.723C5.52614 863.678 1.79777 858.846 0.607422 853.174C-0.533536 847.73 0.800096 841.993 3.27683 837.011C13.1269 817.118 38.1867 810.084 60.3845 809.97C82.5823 809.855 105.266 814.404 126.716 808.657C147.259 803.161 164.958 787.928 173.456 768.432C176.577 761.281 178.514 753.225 176.573 745.662C175.139 740.038 171.693 735.154 168.052 730.646C156.075 715.781 141.179 703.296 124.455 694.1C101.507 681.488 72.6446 672.478 63.1346 648.08C57.1281 632.667 61.1763 614.653 70.3372 600.876C79.4982 587.099 93.1697 576.958 107.327 568.393C142.587 547.064 182.715 533.817 223.746 529.967C246.219 527.851 271.711 529.704 286.859 546.44C305.96 567.549 296.564 605.404 271.653 619.182C262.386 624.309 251.817 626.634 242.312 631.309C232.808 635.984 223.868 644.151 222.93 654.697C222.019 664.937 228.992 674.412 237.383 680.344C254.963 692.788 277.967 693.583 299.494 693.919L371.025 695.056C395.059 695.441 419.352 695.849 442.662 701.77C465.963 707.713 488.531 719.738 502.564 739.264C516.598 758.79 520.432 786.535 508.039 807.146C490.275 836.683 450.149 840.835 415.908 844.809C392.932 847.474 370.121 851.516 347.617 856.887C332.217 860.56 313.269 870.27 316.025 885.86C318.531 900.004 336.363 903.92 350.115 908.089C363.402 912.124 375.759 919.204 385.946 928.644C390.449 932.812 394.686 937.726 395.955 943.729C398.842 957.382 385.498 969.06 372.503 974.115C341.369 986.232 305.702 980.085 273.948 990.484C267.993 992.435 261.603 995.588 259.574 1001.53C258.019 1006.09 259.52 1011.2 262.097 1015.29C276.797 1038.64 318.779 1033.87 329.637 1059.23C335.846 1073.74 327.152 1091.16 314.115 1100.03C301.07 1108.91 284.819 1111.3 269.188 1113.47C196.091 1123.62 79.7877 1155.97 33.9225 1075.19Z" fill="#DBF4D7" fill-opacity="0.25"/>
</svg>
