<svg width="1239" height="4816" viewBox="0 0 1239 4816" fill="none" xmlns="http://www.w3.org/2000/svg">
<path d="M646.699 4300.32C653.396 4415.67 638.525 4531.93 602.861 4643.2C584.927 4699.13 559.558 4756.6 507.678 4793.35C479.987 4812.93 438.636 4825.08 409.197 4807.51C389.817 4795.97 381.473 4775.07 374.575 4755.59C252.51 4411.33 201.167 4050.14 196.355 3690.03C191.477 3324.4 235.755 2952.75 394.965 2614.11C414.749 2572.04 453.473 2522.64 504.313 2533.61C537.151 2540.69 555.353 2570.6 567.061 2598.12C639.87 2769.23 617.732 2957.9 604.475 3139.87C583.347 3430.23 587.484 3721.96 616.924 4011.75C631.324 4153.71 646.699 4300.32 646.699 4300.32Z" fill="#EBEBD3" fill-opacity="0.5"/>
<path d="M1002.51 3369.95C1069.7 3367.96 1126.72 3310.96 1145.52 3245.7C1164.32 3180.46 1151.18 3109.7 1126.68 3046.42C1113.81 3013.19 1097.92 2981.3 1081.73 2949.57C993.346 2553.14 1052.26 2132.91 1022.12 1724.62C1018.84 1680.43 1003.02 1624.19 959.279 1621.33C928.771 1619.34 904.844 1646.62 888.076 1672.46C750.495 1884.66 750.078 2155.11 743.682 2408.75C737.054 2670.82 720.31 2941.19 810.151 3187.1C826.479 3231.76 846.712 3275.95 878.536 3311.05C910.385 3346.13 955.446 3371.33 1002.51 3369.95Z" fill="#EBEBD3" fill-opacity="0.5"/>
<path d="M75.5136 1273.58C66.9146 1288.81 60.1933 1306.18 62.9277 1323.45C65.3787 1339.05 75.2458 1352.51 86.508 1363.57C155.697 1431.51 268.982 1421.25 356.253 1463.46C392.604 1481.06 427.173 1514.13 425.409 1554.48C424.46 1575.95 413.115 1595.86 398.381 1611.53C305.53 1710.32 118.453 1643.59 21.2484 1738.13C11.9364 1747.19 3.58887 1758.01 0.923773 1770.71C-1.63074 1782.9 1.35516 1795.74 6.90037 1806.9C28.9539 1851.44 85.0608 1867.19 134.76 1867.45C184.459 1867.71 235.246 1857.52 283.271 1870.39C329.265 1882.69 368.892 1916.8 387.918 1960.46C394.906 1976.47 399.243 1994.51 394.897 2011.44C391.686 2024.04 383.971 2034.97 375.819 2045.07C349.003 2078.35 315.652 2106.31 278.209 2126.9C226.83 2155.14 162.209 2175.31 140.917 2229.94C127.469 2264.46 136.533 2304.79 157.043 2335.64C177.554 2366.49 208.163 2389.2 239.86 2408.38C318.805 2456.13 408.648 2485.8 500.513 2494.42C550.829 2499.15 607.903 2495.01 641.818 2457.53C684.584 2410.27 663.547 2325.5 607.773 2294.65C587.025 2283.17 563.362 2277.96 542.081 2267.5C520.802 2257.03 500.787 2238.74 498.686 2215.13C496.647 2192.2 512.259 2170.98 531.046 2157.7C570.406 2129.84 621.91 2128.06 670.107 2127.3L830.259 2124.76C884.07 2123.9 938.46 2122.98 990.649 2109.72C1042.82 2096.42 1093.35 2069.49 1124.76 2025.77C1156.19 1982.05 1164.77 1919.92 1137.02 1873.77C1097.25 1807.63 1007.41 1798.34 930.749 1789.44C879.307 1783.47 828.235 1774.42 777.851 1762.39C743.371 1754.17 700.948 1732.43 707.119 1697.52C712.73 1665.85 752.654 1657.08 783.444 1647.75C813.192 1638.71 840.859 1622.86 863.666 1601.72C873.748 1592.39 883.235 1581.38 886.076 1567.94C892.539 1537.37 862.663 1511.22 833.569 1499.9C763.862 1472.77 684.006 1486.54 612.912 1463.25C599.579 1458.88 585.272 1451.82 580.729 1438.52C577.248 1428.31 580.609 1416.86 586.378 1407.71C619.29 1355.42 713.285 1366.1 737.595 1309.32C751.496 1276.83 732.031 1237.82 702.842 1217.96C673.636 1198.08 637.251 1192.73 602.254 1187.87C438.596 1165.14 178.202 1092.7 75.5136 1273.58Z" fill="#DBF4D7" fill-opacity="0.5"/>
<path d="M1033.57 1449.78C1061.57 1480.24 1091.49 1509.67 1127.26 1530.4C1146.89 1541.78 1229.66 1554 1229.66 1554H1239V0.636108H1227.18C1170.73 -2.06592 1110.13 2.71973 1065.22 37.0594C1036.54 58.9879 1016.96 91.3582 1006.07 125.794C995.184 160.23 992.478 196.773 993.078 232.884C993.456 255.599 995.286 278.975 1005.34 299.342C1012.31 313.464 1022.9 325.431 1033.57 337.014C1051.54 356.525 1070.31 375.611 1090.9 392.249C1081.91 396.646 1073.31 401.873 1065.22 408.059C1036.54 429.988 1016.96 462.358 1006.07 496.794C995.184 531.23 992.478 567.773 993.078 603.884C993.456 626.599 995.286 649.975 1005.34 670.342C1012.31 684.464 1022.9 696.431 1033.57 708.014C1051.33 727.294 1069.86 746.159 1090.17 762.658C1081.45 766.989 1073.09 772.111 1065.22 778.143C1036.54 800.122 1016.96 832.565 1006.07 867.079C995.184 901.593 992.478 938.219 993.078 974.412C993.456 997.179 995.286 1020.61 1005.34 1041.02C1012.31 1055.18 1022.9 1067.17 1033.57 1078.78C1051.35 1098.13 1069.92 1117.06 1090.26 1133.62C1081.5 1137.96 1073.12 1143.09 1065.22 1149.14C1036.54 1171.12 1016.96 1203.57 1006.07 1238.08C995.184 1272.59 992.478 1309.22 993.078 1345.41C993.456 1368.18 995.286 1391.61 1005.34 1412.02C1012.31 1426.18 1022.9 1438.17 1033.57 1449.78Z" fill="#DBF4D7"/>
</svg>
