<svg width="3864" height="2753" viewBox="0 0 3864 2753" fill="none" xmlns="http://www.w3.org/2000/svg">
<path d="M1116.86 836.86C1099.34 864.643 1081.56 894.655 1082.01 927.54C1082.45 960.771 1101.42 990.535 1120.33 1017.82C1189.3 1117.32 1266.54 1211.07 1350.96 1297.84C1496.58 1447.5 1662.59 1575.47 1827.96 1702.9C2113.01 1922.49 2418.99 2150.65 2777.21 2184.13C3150.39 2219 3532.03 2015.3 3722.36 1692.35C3912.68 1369.4 3908.97 944.774 3724.68 618.357C3665.71 513.909 3587.68 417.188 3484.55 356.074C3380.97 294.713 3259.22 273.021 3140.19 254.895C2743.05 194.326 2320.36 164.711 1954.81 331.46C1795.68 404.064 1642.74 514.702 1464.54 533.521C1378.14 542.634 1351.75 527.033 1288.72 586.562C1220.25 651.291 1166.92 757.571 1116.86 836.86Z" fill="#FEA19A"/>
<path d="M1537.89 2696.99C1562.31 2725.1 1599.87 2737.94 1636.5 2744.78C2072.13 2824.88 2310.43 2300.46 2497.41 2002.11C2537.4 1938.31 2578.48 1871.57 2586.03 1796.65C2593.59 1721.77 2556.59 1636.54 2484.58 1614.75C2358.65 1576.64 2247.41 1744.76 2117.04 1726.85C2094.22 1723.74 2070.94 1713.54 2059.04 1693.86C2043.57 1668.23 2051.64 1635.2 2062.76 1607.44C2122.11 1459.46 2253.88 1347.93 2305.05 1196.94C2326.42 1133.92 2324.66 1049.31 2265.94 1017.99C2240.12 1004.21 2209.18 1004.63 2180.15 1008.3C2114.45 1016.59 2050.71 1040.05 1995.25 1076.24C1937.87 1113.73 1868.9 1166.9 1809.56 1132.68C1744.17 1094.93 1766.77 995.877 1800.56 928.305C1849.92 829.562 1905.07 733.77 1965.76 641.603C2056.19 504.232 2164.01 344.803 2110.57 189.257C2073.27 80.7276 1960.17 9.63448 1845.83 1.03909C1731.49 -7.5563 1618.39 38.0614 1525.27 105.012C1432.19 172.067 1356.24 259.626 1281.17 346.304L1057.77 604.321C990.561 681.99 917.146 763.647 817.81 789.743C770.419 802.222 714.44 798.65 679.827 763.906C644.18 728.126 641.749 670.392 653.804 621.305C665.858 572.218 689.761 526.445 699.436 476.84C725.46 343.508 615.984 193.037 480.329 198.112C372.767 202.15 287.866 289.658 226.713 378.304C115.012 540.115 40.4072 727.453 10.2444 921.781C-1.86206 999.813 -6.72534 1080.9 15.5217 1156.65C37.7688 1232.41 91.1614 1302.46 165.87 1327.78L748.793 1834.45C681.173 1915.95 630.056 2029.14 672.532 2126.17C683.139 2150.51 700.005 2172.98 723.39 2185.51C747.758 2198.56 776.835 2199.75 804.359 2196.95L1537.89 2696.99Z" fill="#EBEBD3"/>
</svg>
