<svg width="3504" height="2753" viewBox="0 0 3504 2753" fill="none" xmlns="http://www.w3.org/2000/svg">
<path d="M756.865 1138.86C739.338 1166.64 721.563 1196.66 722.008 1229.54C722.454 1262.77 741.417 1292.54 760.331 1319.82C829.302 1419.32 906.541 1513.07 990.96 1599.84C1136.58 1749.5 1302.59 1877.47 1467.96 2004.9C1753.01 2224.49 2058.99 2452.65 2417.21 2486.13C2790.39 2521 3172.03 2317.3 3362.36 1994.35C3552.68 1671.4 3548.97 1246.77 3364.68 920.357C3305.71 815.909 3227.68 719.188 3124.55 658.074C3020.97 596.713 2899.22 575.021 2780.19 556.895C2383.05 496.326 1960.36 466.711 1594.81 633.46C1435.68 706.064 1282.74 816.702 1104.54 835.521C1018.14 844.634 991.752 829.033 928.723 888.562C860.247 953.291 806.922 1059.57 756.865 1138.86Z" fill="#FEA19A"/>
<path d="M1537.89 2696.99C1562.31 2725.1 1599.87 2737.94 1636.5 2744.78C2072.13 2824.88 2310.43 2300.46 2497.41 2002.11C2537.4 1938.31 2578.48 1871.57 2586.03 1796.65C2593.59 1721.77 2556.59 1636.54 2484.58 1614.75C2358.65 1576.64 2247.41 1744.76 2117.04 1726.85C2094.22 1723.74 2070.94 1713.54 2059.04 1693.86C2043.57 1668.23 2051.64 1635.2 2062.76 1607.44C2122.11 1459.46 2253.88 1347.93 2305.05 1196.94C2326.42 1133.92 2324.66 1049.31 2265.94 1017.99C2240.12 1004.21 2209.18 1004.63 2180.15 1008.3C2114.45 1016.59 2050.71 1040.05 1995.25 1076.24C1937.87 1113.73 1868.9 1166.9 1809.56 1132.68C1744.17 1094.93 1766.77 995.877 1800.56 928.305C1849.92 829.562 1905.07 733.77 1965.76 641.603C2056.19 504.232 2164.01 344.803 2110.57 189.257C2073.27 80.7276 1960.17 9.63448 1845.83 1.03909C1731.49 -7.5563 1618.39 38.0614 1525.27 105.012C1432.19 172.067 1356.24 259.626 1281.17 346.304L1057.77 604.321C990.561 681.99 917.146 763.647 817.81 789.743C770.419 802.222 714.44 798.65 679.827 763.906C644.18 728.126 641.749 670.392 653.804 621.305C665.858 572.218 689.761 526.445 699.436 476.84C725.46 343.508 615.984 193.037 480.329 198.112C372.767 202.15 287.866 289.658 226.713 378.304C115.012 540.115 40.4072 727.453 10.2444 921.781C-1.86206 999.813 -6.72534 1080.9 15.5217 1156.65C37.7688 1232.41 91.1614 1302.46 165.87 1327.78L748.793 1834.45C681.173 1915.95 630.056 2029.14 672.532 2126.17C683.139 2150.51 700.005 2172.98 723.39 2185.51C747.758 2198.56 776.835 2199.75 804.359 2196.95L1537.89 2696.99Z" fill="#EBEBD3"/>
</svg>
