<svg width="1508" height="2033" viewBox="0 0 1508 2033" fill="none" xmlns="http://www.w3.org/2000/svg">
  <path d="M536.131 2.49934C447.777 -0.821194 358.202 -4.07397 271.982 15.646C185.795 35.3659 101.878 81.108 55.0584 156.125C5.59597 235.377 3.7665 334.282 3.46159 427.698C2.30973 765.85 1.19181 1104 0.0399469 1442.16C-0.43435 1579.65 2.03873 1726.94 80.7721 1839.64C142.566 1928.07 244.303 1982.15 349.089 2007.66C453.909 2033.21 562.997 2033.14 670.866 2032.97C821.794 2032.7 972.756 2032.47 1123.68 2032.19C1226.57 2032.03 1340.37 2027.69 1414.97 1956.84C1427.98 1944.47 1439.67 1929.77 1443.83 1912.32C1451.9 1878.74 1429.17 1843.77 1399.08 1826.9C1368.96 1810.02 1333.19 1807.25 1298.7 1805.92C1088.04 1797.76 871.663 1827.88 669.849 1766.92C643.051 1758.83 615.508 1748.36 597.18 1727.18C578.886 1706 573.567 1671.17 592.573 1650.64C603.515 1638.85 619.913 1633.97 635.666 1630.61C728.018 1610.96 823.691 1626.65 917.466 1637.73C1088.55 1657.96 1395.35 1650.03 1433.43 1651.86C1471.51 1653.69 1490.96 1624.85 1499.46 1587.89C1507.97 1550.92 1507.97 1468.08 1484.76 1411.73C1475.27 1388.65 1464.67 1367.44 1447.73 1352.87C1431.03 1338.51 1407.92 1334.68 1386.07 1332C1198.18 1308.86 1007.92 1328.07 818.643 1324.89C763.32 1323.97 706.37 1320.72 656.264 1297.27C606.158 1273.82 563.945 1225.58 563.403 1170.24C562.658 1091.23 646.033 1033.73 724.868 1028.44C803.703 1023.19 879.76 1053.99 956.122 1074.32C1067.28 1103.94 1184.19 1111.69 1298.29 1097.02C1352.33 1090.08 1408.09 1077.03 1449.63 1041.79C1508.17 992.121 1525.41 900.095 1488.83 832.6C1455.69 771.475 1387.49 736.406 1319.23 723.361C1250.97 710.316 1180.74 715.703 1111.22 715.365C1002.43 714.822 893.751 700.016 788.796 671.452C743.196 659.017 696.173 642.719 664.192 607.888C632.21 573.09 621.335 514.608 652.334 478.895C673.576 454.431 707.827 446.503 739.91 442.03C825.283 430.103 912.723 432.848 997.182 450.162C1102.54 471.746 1210.82 515.76 1313.98 485.231C1515.56 425.563 1573.35 71.9596 1335.09 25.5737C1232.43 5.5827 1107.08 24.049 1002.47 20.0846C847.033 14.2229 691.565 8.36111 536.131 2.49934Z" fill="#FF462C" fill-opacity="0.25"/>
</svg>
