<svg width="1974" height="2033" viewBox="0 0 1974 2033" fill="none" xmlns="http://www.w3.org/2000/svg">
<path d="M1002.13 2.49934C913.777 -0.821194 824.202 -4.07397 737.982 15.646C651.795 35.3659 567.878 81.108 521.058 156.125C471.596 235.377 469.766 334.282 469.462 427.698C468.31 765.85 467.192 1104 466.04 1442.16C465.566 1579.65 468.039 1726.94 546.772 1839.64C608.566 1928.07 710.303 1982.15 815.089 2007.66C919.909 2033.21 1029 2033.14 1136.87 2032.97C1287.79 2032.7 1438.76 2032.47 1589.68 2032.19C1692.57 2032.03 1806.37 2027.69 1880.97 1956.84C1893.98 1944.47 1905.67 1929.77 1909.83 1912.32C1917.9 1878.74 1895.17 1843.77 1865.08 1826.9C1834.96 1810.02 1799.19 1807.25 1764.7 1805.92C1554.04 1797.76 1337.66 1827.88 1135.85 1766.92C1109.05 1758.83 1081.51 1748.36 1063.18 1727.18C1044.89 1706 1039.57 1671.17 1058.57 1650.64C1069.52 1638.85 1085.91 1633.97 1101.67 1630.61C1194.02 1610.96 1289.69 1626.65 1383.47 1637.73C1554.55 1657.96 1861.35 1650.03 1899.43 1651.86C1937.51 1653.69 1956.96 1624.85 1965.46 1587.89C1973.97 1550.92 1973.97 1468.08 1950.76 1411.73C1941.27 1388.65 1930.67 1367.44 1913.73 1352.87C1897.03 1338.51 1873.92 1334.68 1852.07 1332C1664.18 1308.86 1473.92 1328.07 1284.64 1324.89C1229.32 1323.97 1172.37 1320.72 1122.26 1297.27C1072.16 1273.82 1029.95 1225.58 1029.4 1170.24C1028.66 1091.23 1112.03 1033.73 1190.87 1028.44C1269.7 1023.19 1345.76 1053.99 1422.12 1074.32C1533.28 1103.94 1650.19 1111.69 1764.29 1097.02C1818.33 1090.08 1874.09 1077.03 1915.63 1041.79C1974.17 992.121 1991.41 900.095 1954.83 832.6C1921.69 771.475 1853.49 736.406 1785.23 723.361C1716.97 710.316 1646.74 715.703 1577.22 715.365C1468.43 714.822 1359.75 700.016 1254.8 671.452C1209.2 659.017 1162.17 642.719 1130.19 607.888C1098.21 573.09 1087.34 514.608 1118.33 478.895C1139.58 454.431 1173.83 446.503 1205.91 442.03C1291.28 430.103 1378.72 432.848 1463.18 450.162C1568.54 471.746 1676.82 515.76 1779.98 485.231C1981.56 425.563 2039.35 71.9596 1801.09 25.5737C1698.43 5.5827 1573.08 24.049 1468.47 20.0846C1313.03 14.2229 1157.57 8.36111 1002.13 2.49934Z" fill="#BAC8C9"/>
<path d="M265.237 357.559C252.701 355.201 239.325 353.072 227.518 357.931C215.585 362.84 207.553 373.939 200.407 384.666C174.354 423.781 151.558 465.06 132.309 507.933C99.1076 581.886 76.6541 660.104 54.3052 738.012C15.8005 872.29 -22.8016 1015.35 16.3451 1149.46C57.1298 1289.16 185.244 1397.83 329.046 1420.4C472.848 1442.97 625.603 1380.96 717.08 1267.79C746.351 1231.58 770.107 1189.59 777.418 1143.62C784.755 1097.46 775.173 1050.41 764.694 1004.85C729.76 852.825 679.999 695.999 567.524 587.856C518.556 540.781 456.743 501.374 424.464 439.733C408.818 409.844 410.675 398.088 380.171 383.839C347.012 368.367 301.019 364.301 265.237 357.559Z" fill="#FF462C"/>
</svg>
